<svg xmlns="http://www.w3.org/2000/svg" width="142" height="20" viewBox="0 0 142 20">
    <path data-name="Shape 4" d="M99.293 15.109a7.459 7.459 0 0 1-4.056-4.147 8.11 8.11 0 0 1-.58-3.061v-.044a8.029 8.029 0 0 1 .58-3.05 7.84 7.84 0 0 1 1.61-2.5A7.47 7.47 0 0 1 99.315.618 7.944 7.944 0 0 1 102.491 0a9.727 9.727 0 0 1 1.921.174 7.972 7.972 0 0 1 1.577.476 7 7 0 0 1 1.31.738 8.923 8.923 0 0 1 1.106.946l-2.276 2.3a7.679 7.679 0 0 0-1.611-1.1 4.517 4.517 0 0 0-2.049-.456 4.14 4.14 0 0 0-3.134 1.388 4.8 4.8 0 0 0-.9 1.511 5.152 5.152 0 0 0-.322 1.834v.042a5.242 5.242 0 0 0 .322 1.847 4.83 4.83 0 0 0 .891 1.521 4.138 4.138 0 0 0 1.373 1.03 4.084 4.084 0 0 0 1.77.381 4.544 4.544 0 0 0 2.178-.479 8.218 8.218 0 0 0 1.531-1.085l2.131 2.156a10.876 10.876 0 0 1-.99.905 7.181 7.181 0 0 1-1.362.857 7.027 7.027 0 0 1-1.62.542 9.686 9.686 0 0 1-1.974.184 7.693 7.693 0 0 1-3.07-.603zM70.145 13.8l-2-2.02-4.393-4.449a3.007 3.007 0 0 0-2.15-.909 3.149 3.149 0 0 0-3.084 3.211 3.151 3.151 0 0 0 3.082 3.213 3.009 3.009 0 0 0 2.148-.909l1.523-1.537 2.119 2.143-1.242 1.257a6.353 6.353 0 0 1-4.548 1.885 6.161 6.161 0 0 1-6.264-6.053A6.16 6.16 0 0 1 61.6 3.581a6.351 6.351 0 0 1 4.547 1.89l2 2.019 2-2.021a6.35 6.35 0 0 1 4.546-1.888 6.16 6.16 0 0 1 6.264 6.052 6.161 6.161 0 0 1-6.264 6.053 6.352 6.352 0 0 1-4.548-1.886zm2.4-6.467-2.279 2.3 2.276 2.3a3.007 3.007 0 0 0 2.15.91 3.149 3.149 0 0 0 3.083-3.213 3.148 3.148 0 0 0-3.083-3.211 3 3 0 0 0-2.147.909zM5.983 15.685a6.053 6.053 0 0 1 0-12.105h25.331a6.053 6.053 0 0 1 0 12.105zm20.361-6.052a4.817 4.817 0 1 0 4.817-4.873 4.844 4.844 0 0 0-4.817 4.873zm-14.528 2.024a2.41 2.41 0 0 0 1.543.527 2.47 2.47 0 0 0 .774-.116 1.971 1.971 0 0 0 .615-.322 1.7 1.7 0 0 0 .427-.5 1.907 1.907 0 0 0 .22-.652 1.2 1.2 0 0 0-.139-.865 1.518 1.518 0 0 0-.78-.531 6.191 6.191 0 0 0-.282-.091 1.53 1.53 0 0 1-.254-.1.529.529 0 0 1-.172-.139.262.262 0 0 1-.041-.2.421.421 0 0 1 .192-.292.692.692 0 0 1 .4-.112.937.937 0 0 1 .368.078 1.182 1.182 0 0 1 .356.239l.625-.949a2.669 2.669 0 0 0-.673-.282 2.73 2.73 0 0 0-.7-.1 2.005 2.005 0 0 0-.683.112 1.7 1.7 0 0 0-.944.8 1.868 1.868 0 0 0-.211.63 1.265 1.265 0 0 0 .018.574.887.887 0 0 0 .223.375 1.156 1.156 0 0 0 .363.24c.14.059.283.115.431.163.124.046.23.086.315.124a.77.77 0 0 1 .2.122.316.316 0 0 1 .1.142.393.393 0 0 1 .008.183.491.491 0 0 1-.191.309.7.7 0 0 1-.46.137 1.149 1.149 0 0 1-.5-.117 1.683 1.683 0 0 1-.478-.36zm7.945-1.346-.12.781h2.232l-.149.961h1.116l.149-.961h.557l.144-.93h-.558l.431-2.786H21.98zm-1.6-1.952a.407.407 0 0 1 .144.125.419.419 0 0 1 .074.177.6.6 0 0 1 0 .2 1.488 1.488 0 0 1-.069.243 1.79 1.79 0 0 1-.214.371 5.648 5.648 0 0 1-.47.561 14.04 14.04 0 0 1-.837.81l-1.332 1.2h3.722l.159-1.03h-1.5l.879-.725a3.185 3.185 0 0 0 .622-.667 1.8 1.8 0 0 0 .272-.71 1.555 1.555 0 0 0-.032-.666 1.3 1.3 0 0 0-.292-.53 1.4 1.4 0 0 0-.513-.349 1.888 1.888 0 0 0-.7-.123 2.09 2.09 0 0 0-.74.13 2.04 2.04 0 0 0-.625.372 2.084 2.084 0 0 0-.459.578 2.232 2.232 0 0 0-.247.744h1.312a1.445 1.445 0 0 1 .013-.2.7.7 0 0 1 .2-.4.556.556 0 0 1 .408-.16.459.459 0 0 1 .223.05zm-9.54 3.695h2.63l.159-1.03H9.982l.124-.806h1.348l.16-1.03h-1.348l.12-.781h1.43l.159-1.03h-2.63zM5.8 9.809l-.348 2.245h1.2L7 9.809l2.075-2.432H7.64L6.59 8.656l-.661-1.279H4.495zm126.8 5.338a5.742 5.742 0 0 1-1.427-1.217v1.52h-3.263V.254h3.263v5.232a5.206 5.206 0 0 1 1.449-1.357 3.954 3.954 0 0 1 2.136-.533 5.071 5.071 0 0 1 1.952.391 4.85 4.85 0 0 1 1.674 1.162 5.792 5.792 0 0 1 1.171 1.889A7.024 7.024 0 0 1 140 9.612v.042a7.02 7.02 0 0 1-.439 2.572 5.929 5.929 0 0 1-1.16 1.889 4.727 4.727 0 0 1-1.662 1.161 5.1 5.1 0 0 1-1.974.391 4.059 4.059 0 0 1-2.159-.52zm.235-8.521a2.587 2.587 0 0 0-.879.652 3.2 3.2 0 0 0-.6 1.019 3.687 3.687 0 0 0-.226 1.315v.042a3.676 3.676 0 0 0 .226 1.313 3.225 3.225 0 0 0 .6 1.02 2.6 2.6 0 0 0 .879.652 2.694 2.694 0 0 0 2.169 0 2.737 2.737 0 0 0 .891-.652 3.153 3.153 0 0 0 .611-1.008 3.651 3.651 0 0 0 .226-1.325v-.042a3.67 3.67 0 0 0-.226-1.315 3.1 3.1 0 0 0-.611-1.019 2.725 2.725 0 0 0-.891-.652 2.685 2.685 0 0 0-2.169 0zm-16.509 7.891a4.616 4.616 0 0 1-1.018-3.171V3.814h3.262v6.475a2.63 2.63 0 0 0 .514 1.766 1.832 1.832 0 0 0 1.462.595 1.923 1.923 0 0 0 1.49-.595 2.525 2.525 0 0 0 .547-1.766V3.814h3.263V15.45h-3.263v-1.663a7.268 7.268 0 0 1-.61.711 4.4 4.4 0 0 1-.741.6 3.723 3.723 0 0 1-.9.416 3.763 3.763 0 0 1-1.115.152 3.66 3.66 0 0 1-2.885-1.149zm-6.345.934V.254h3.261v15.2zm-20.075 0-3.087-4.809-1.119 1.132v3.676h-3.257V.254H85.7v7.61l4-4.049h3.868L89.048 8.4l4.527 7.051zm-48.5 0V.254h6.962A5.278 5.278 0 0 1 52.3 1.6a3.535 3.535 0 0 1 1.028 2.583v.044a3.792 3.792 0 0 1-.159 1.151 3.627 3.627 0 0 1-.427.9 3.471 3.471 0 0 1-.618.706 4.264 4.264 0 0 1-.757.522 5.061 5.061 0 0 1 2.05 1.356 3.506 3.506 0 0 1 .748 2.378v.043a3.978 3.978 0 0 1-.4 1.824 3.52 3.52 0 0 1-1.136 1.3 5.309 5.309 0 0 1-1.778.782 9.55 9.55 0 0 1-2.3.259zm3.22-2.929h3.927a3.139 3.139 0 0 0 1.717-.4 1.381 1.381 0 0 0 .63-1.252v-.044a1.439 1.439 0 0 0-.58-1.2 3.091 3.091 0 0 0-1.867-.446h-3.818zm0-6.123h3.047a3.41 3.41 0 0 0 1.738-.38 1.316 1.316 0 0 0 .644-1.227v-.043a1.347 1.347 0 0 0-.558-1.162 2.74 2.74 0 0 0-1.61-.4h-3.252zm-23.68 3.765L22.3 8.321l-.285 1.841z" transform="translate(2 1.957)" style="fill:#405aa9"/>
</svg>
